<mxfile host="app.diagrams.net" modified="2020-12-04T19:46:29.140Z" agent="5.0 (Macintosh; Intel Mac OS X 11_0_1) AppleWebKit/537.36 (KHTML, like Gecko) Chrome/87.0.4280.67 Safari/537.36" etag="40BIjv9oTS85CkvoFaPp" version="13.10.6" type="github" pages="2">
  <diagram id="QAmNsVhInbYnhKeryyQr" name="Structor">
    <mxGraphModel dx="861" dy="1787" grid="1" gridSize="10" guides="1" tooltips="1" connect="1" arrows="1" fold="1" page="1" pageScale="1" pageWidth="827" pageHeight="1169" math="0" shadow="0">
      <root>
        <mxCell id="0" />
        <mxCell id="1" parent="0" />
        <mxCell id="d9jiiuhchImQ_qqusq1X-34" style="edgeStyle=orthogonalEdgeStyle;rounded=0;orthogonalLoop=1;jettySize=auto;html=1;entryX=0;entryY=0.455;entryDx=0;entryDy=0;entryPerimeter=0;" parent="1" target="d9jiiuhchImQ_qqusq1X-12" edge="1">
          <mxGeometry relative="1" as="geometry">
            <mxPoint x="110" y="130" as="sourcePoint" />
          </mxGeometry>
        </mxCell>
        <mxCell id="d9jiiuhchImQ_qqusq1X-1" value="&lt;font style=&quot;font-size: 14px&quot;&gt;&lt;b&gt;AuthPage&lt;/b&gt;&lt;/font&gt;&lt;br&gt;&lt;br&gt;login&lt;br&gt;password" style="rounded=0;whiteSpace=wrap;html=1;fillColor=#ffe6cc;strokeColor=#d79b00;" parent="1" vertex="1">
          <mxGeometry x="10" y="80" width="90" height="100" as="geometry" />
        </mxCell>
        <mxCell id="d9jiiuhchImQ_qqusq1X-2" value="Бариста&lt;br&gt;" style="text;html=1;strokeColor=none;fillColor=none;align=center;verticalAlign=middle;whiteSpace=wrap;rounded=0;" parent="1" vertex="1">
          <mxGeometry x="10" y="50" width="90" height="20" as="geometry" />
        </mxCell>
        <mxCell id="d9jiiuhchImQ_qqusq1X-16" style="edgeStyle=orthogonalEdgeStyle;rounded=0;orthogonalLoop=1;jettySize=auto;html=1;exitX=1;exitY=0.5;exitDx=0;exitDy=0;entryX=0;entryY=0.5;entryDx=0;entryDy=0;" parent="1" source="d9jiiuhchImQ_qqusq1X-12" target="d9jiiuhchImQ_qqusq1X-22" edge="1">
          <mxGeometry relative="1" as="geometry">
            <mxPoint x="630" y="75" as="targetPoint" />
          </mxGeometry>
        </mxCell>
        <mxCell id="d9jiiuhchImQ_qqusq1X-20" style="edgeStyle=orthogonalEdgeStyle;rounded=0;orthogonalLoop=1;jettySize=auto;html=1;exitX=0.5;exitY=1;exitDx=0;exitDy=0;entryX=0.5;entryY=0;entryDx=0;entryDy=0;" parent="1" source="d9jiiuhchImQ_qqusq1X-12" target="d9jiiuhchImQ_qqusq1X-19" edge="1">
          <mxGeometry relative="1" as="geometry" />
        </mxCell>
        <mxCell id="d9jiiuhchImQ_qqusq1X-44" value="" style="edgeStyle=orthogonalEdgeStyle;rounded=0;orthogonalLoop=1;jettySize=auto;html=1;" parent="1" source="d9jiiuhchImQ_qqusq1X-15" target="d9jiiuhchImQ_qqusq1X-43" edge="1">
          <mxGeometry relative="1" as="geometry" />
        </mxCell>
        <mxCell id="d9jiiuhchImQ_qqusq1X-15" value="newOrder" style="rounded=0;whiteSpace=wrap;html=1;fillColor=#ffe6cc;strokeColor=#d79b00;" parent="1" vertex="1">
          <mxGeometry x="464" y="180" width="90" height="30" as="geometry" />
        </mxCell>
        <mxCell id="d9jiiuhchImQ_qqusq1X-17" value="orderHistory" style="rounded=0;whiteSpace=wrap;html=1;fillColor=#ffe6cc;strokeColor=#d79b00;" parent="1" vertex="1">
          <mxGeometry x="464" y="220" width="90" height="30" as="geometry" />
        </mxCell>
        <mxCell id="d9jiiuhchImQ_qqusq1X-19" value="replenishDeposit" style="rounded=0;whiteSpace=wrap;html=1;fillColor=#ffe6cc;strokeColor=#d79b00;" parent="1" vertex="1">
          <mxGeometry x="250" y="220" width="110" height="40" as="geometry" />
        </mxCell>
        <mxCell id="d9jiiuhchImQ_qqusq1X-38" style="edgeStyle=orthogonalEdgeStyle;rounded=0;orthogonalLoop=1;jettySize=auto;html=1;exitX=0;exitY=0.5;exitDx=0;exitDy=0;entryX=0.5;entryY=0;entryDx=0;entryDy=0;" parent="1" source="d9jiiuhchImQ_qqusq1X-21" target="d9jiiuhchImQ_qqusq1X-12" edge="1">
          <mxGeometry relative="1" as="geometry" />
        </mxCell>
        <mxCell id="d9jiiuhchImQ_qqusq1X-21" value="openDay&lt;br&gt;" style="rounded=0;whiteSpace=wrap;html=1;fillColor=#ffe6cc;strokeColor=#d79b00;" parent="1" vertex="1">
          <mxGeometry x="400" y="-20" width="80" height="30" as="geometry" />
        </mxCell>
        <mxCell id="d9jiiuhchImQ_qqusq1X-23" style="edgeStyle=orthogonalEdgeStyle;rounded=0;orthogonalLoop=1;jettySize=auto;html=1;exitX=0.5;exitY=0;exitDx=0;exitDy=0;entryX=0.5;entryY=1;entryDx=0;entryDy=0;" parent="1" source="d9jiiuhchImQ_qqusq1X-22" target="d9jiiuhchImQ_qqusq1X-21" edge="1">
          <mxGeometry relative="1" as="geometry" />
        </mxCell>
        <mxCell id="d9jiiuhchImQ_qqusq1X-26" style="edgeStyle=orthogonalEdgeStyle;rounded=0;orthogonalLoop=1;jettySize=auto;html=1;exitX=0.5;exitY=1;exitDx=0;exitDy=0;entryX=0;entryY=0.5;entryDx=0;entryDy=0;" parent="1" source="d9jiiuhchImQ_qqusq1X-22" target="d9jiiuhchImQ_qqusq1X-15" edge="1">
          <mxGeometry relative="1" as="geometry" />
        </mxCell>
        <mxCell id="d9jiiuhchImQ_qqusq1X-29" style="edgeStyle=orthogonalEdgeStyle;rounded=0;orthogonalLoop=1;jettySize=auto;html=1;exitX=0.5;exitY=1;exitDx=0;exitDy=0;entryX=0;entryY=0.5;entryDx=0;entryDy=0;" parent="1" source="d9jiiuhchImQ_qqusq1X-22" target="d9jiiuhchImQ_qqusq1X-27" edge="1">
          <mxGeometry relative="1" as="geometry" />
        </mxCell>
        <mxCell id="d9jiiuhchImQ_qqusq1X-36" style="edgeStyle=orthogonalEdgeStyle;rounded=0;orthogonalLoop=1;jettySize=auto;html=1;exitX=0.5;exitY=1;exitDx=0;exitDy=0;entryX=0;entryY=0.5;entryDx=0;entryDy=0;" parent="1" source="d9jiiuhchImQ_qqusq1X-22" target="d9jiiuhchImQ_qqusq1X-17" edge="1">
          <mxGeometry relative="1" as="geometry">
            <mxPoint x="450" y="230.26905829596413" as="targetPoint" />
          </mxGeometry>
        </mxCell>
        <mxCell id="d9jiiuhchImQ_qqusq1X-22" value="isDayOpen?" style="rounded=0;whiteSpace=wrap;html=1;" parent="1" vertex="1">
          <mxGeometry x="380" y="60" width="120" height="60" as="geometry" />
        </mxCell>
        <mxCell id="d9jiiuhchImQ_qqusq1X-24" value="false" style="text;html=1;strokeColor=none;fillColor=none;align=center;verticalAlign=middle;whiteSpace=wrap;rounded=0;" parent="1" vertex="1">
          <mxGeometry x="440" y="30" width="40" height="20" as="geometry" />
        </mxCell>
        <mxCell id="d9jiiuhchImQ_qqusq1X-51" value="" style="edgeStyle=orthogonalEdgeStyle;rounded=0;orthogonalLoop=1;jettySize=auto;html=1;" parent="1" source="d9jiiuhchImQ_qqusq1X-27" target="d9jiiuhchImQ_qqusq1X-50" edge="1">
          <mxGeometry relative="1" as="geometry" />
        </mxCell>
        <mxCell id="d9jiiuhchImQ_qqusq1X-27" value="closeDay" style="rounded=0;whiteSpace=wrap;html=1;" parent="1" vertex="1">
          <mxGeometry x="464" y="140" width="90" height="30" as="geometry" />
        </mxCell>
        <mxCell id="d9jiiuhchImQ_qqusq1X-31" value="true" style="text;html=1;strokeColor=none;fillColor=none;align=center;verticalAlign=middle;whiteSpace=wrap;rounded=0;" parent="1" vertex="1">
          <mxGeometry x="400" y="120" width="40" height="20" as="geometry" />
        </mxCell>
        <mxCell id="d9jiiuhchImQ_qqusq1X-40" value="При открытии дня создается кассовый день.&amp;nbsp;" style="text;html=1;strokeColor=none;fillColor=none;align=left;verticalAlign=top;whiteSpace=wrap;rounded=0;" parent="1" vertex="1">
          <mxGeometry x="280" y="-60" width="120" height="50" as="geometry" />
        </mxCell>
        <mxCell id="d9jiiuhchImQ_qqusq1X-47" style="edgeStyle=orthogonalEdgeStyle;rounded=0;orthogonalLoop=1;jettySize=auto;html=1;exitX=0.5;exitY=1;exitDx=0;exitDy=0;entryX=0.613;entryY=0.994;entryDx=0;entryDy=0;entryPerimeter=0;" parent="1" source="d9jiiuhchImQ_qqusq1X-43" target="d9jiiuhchImQ_qqusq1X-12" edge="1">
          <mxGeometry relative="1" as="geometry">
            <mxPoint x="390.0000000000001" y="330.8333333333331" as="targetPoint" />
            <Array as="points">
              <mxPoint x="655" y="290" />
              <mxPoint x="400" y="290" />
              <mxPoint x="400" y="210" />
              <mxPoint x="319" y="210" />
            </Array>
          </mxGeometry>
        </mxCell>
        <mxCell id="d9jiiuhchImQ_qqusq1X-43" value="orderPay" style="rounded=0;whiteSpace=wrap;html=1;fillColor=#ffe6cc;strokeColor=#d79b00;" parent="1" vertex="1">
          <mxGeometry x="610" y="180" width="90" height="30" as="geometry" />
        </mxCell>
        <mxCell id="d9jiiuhchImQ_qqusq1X-52" style="edgeStyle=orthogonalEdgeStyle;rounded=0;orthogonalLoop=1;jettySize=auto;html=1;exitX=0.5;exitY=0;exitDx=0;exitDy=0;entryX=0.25;entryY=0;entryDx=0;entryDy=0;" parent="1" source="d9jiiuhchImQ_qqusq1X-50" target="d9jiiuhchImQ_qqusq1X-12" edge="1">
          <mxGeometry relative="1" as="geometry">
            <mxPoint x="280" y="40" as="targetPoint" />
            <Array as="points">
              <mxPoint x="655" y="-80" />
              <mxPoint x="260" y="-80" />
              <mxPoint x="260" y="30" />
              <mxPoint x="290" y="30" />
            </Array>
          </mxGeometry>
        </mxCell>
        <mxCell id="d9jiiuhchImQ_qqusq1X-50" value="currentDayData" style="whiteSpace=wrap;html=1;rounded=0;fillColor=#ffe6cc;strokeColor=#d79b00;" parent="1" vertex="1">
          <mxGeometry x="595" y="60" width="120" height="60" as="geometry" />
        </mxCell>
        <mxCell id="d9jiiuhchImQ_qqusq1X-70" value="" style="group" parent="1" vertex="1" connectable="0">
          <mxGeometry x="250" y="80" width="100" height="140" as="geometry" />
        </mxCell>
        <mxCell id="d9jiiuhchImQ_qqusq1X-12" value="&lt;font style=&quot;font-size: 14px&quot;&gt;&lt;b&gt;Main menu&lt;/b&gt;&lt;/font&gt;" style="rounded=0;whiteSpace=wrap;html=1;fillColor=#ffe6cc;strokeColor=#d79b00;verticalAlign=top;align=left;" parent="d9jiiuhchImQ_qqusq1X-70" vertex="1">
          <mxGeometry x="20" width="80" height="110" as="geometry" />
        </mxCell>
        <mxCell id="eKbrUnju6TxogvGsX7KW-58" value="&lt;span style=&quot;color: rgb(51 , 68 , 76) ; font-family: &amp;#34;roboto&amp;#34; , sans-serif ; font-size: medium ; background-color: rgb(255 , 255 , 255)&quot;&gt;/auth/users/&amp;nbsp;&lt;/span&gt;" style="shape=process;whiteSpace=wrap;html=1;backgroundOutline=1;" vertex="1" parent="1">
          <mxGeometry x="30" y="-30" width="120" height="60" as="geometry" />
        </mxCell>
      </root>
    </mxGraphModel>
  </diagram>
  <diagram id="B0ynTMlzHVJTCbaXMb35" name="models">
    <mxGraphModel dx="782" dy="525" grid="1" gridSize="10" guides="1" tooltips="1" connect="1" arrows="1" fold="1" page="1" pageScale="1" pageWidth="827" pageHeight="1169" math="0" shadow="0">
      <root>
        <mxCell id="25EGBiNsoIBymJdUqK-6-0" />
        <mxCell id="25EGBiNsoIBymJdUqK-6-1" style="" parent="25EGBiNsoIBymJdUqK-6-0" />
        <mxCell id="25EGBiNsoIBymJdUqK-6-36" value="" style="group" vertex="1" connectable="0" parent="25EGBiNsoIBymJdUqK-6-1">
          <mxGeometry x="80" y="10" width="184" height="244" as="geometry" />
        </mxCell>
        <mxCell id="25EGBiNsoIBymJdUqK-6-11" value="User" style="shape=table;startSize=30;container=1;collapsible=1;childLayout=tableLayout;fixedRows=1;rowLines=0;fontStyle=1;align=center;resizeLast=1;" vertex="1" parent="25EGBiNsoIBymJdUqK-6-36">
          <mxGeometry width="180" height="240" as="geometry" />
        </mxCell>
        <mxCell id="25EGBiNsoIBymJdUqK-6-12" value="" style="shape=partialRectangle;collapsible=0;dropTarget=0;pointerEvents=0;fillColor=none;top=0;left=0;bottom=1;right=0;points=[[0,0.5],[1,0.5]];portConstraint=eastwest;" vertex="1" parent="25EGBiNsoIBymJdUqK-6-11">
          <mxGeometry y="30" width="180" height="30" as="geometry" />
        </mxCell>
        <mxCell id="25EGBiNsoIBymJdUqK-6-13" value="PK" style="shape=partialRectangle;connectable=0;fillColor=none;top=0;left=0;bottom=0;right=0;fontStyle=1;overflow=hidden;" vertex="1" parent="25EGBiNsoIBymJdUqK-6-12">
          <mxGeometry width="30" height="30" as="geometry" />
        </mxCell>
        <mxCell id="25EGBiNsoIBymJdUqK-6-14" value="UniqueID" style="shape=partialRectangle;connectable=0;fillColor=none;top=0;left=0;bottom=0;right=0;align=left;spacingLeft=6;fontStyle=5;overflow=hidden;" vertex="1" parent="25EGBiNsoIBymJdUqK-6-12">
          <mxGeometry x="30" width="150" height="30" as="geometry" />
        </mxCell>
        <mxCell id="25EGBiNsoIBymJdUqK-6-15" value="" style="shape=partialRectangle;collapsible=0;dropTarget=0;pointerEvents=0;fillColor=none;top=0;left=0;bottom=0;right=0;points=[[0,0.5],[1,0.5]];portConstraint=eastwest;" vertex="1" parent="25EGBiNsoIBymJdUqK-6-11">
          <mxGeometry y="60" width="180" height="30" as="geometry" />
        </mxCell>
        <mxCell id="25EGBiNsoIBymJdUqK-6-16" value="" style="shape=partialRectangle;connectable=0;fillColor=none;top=0;left=0;bottom=0;right=0;editable=1;overflow=hidden;" vertex="1" parent="25EGBiNsoIBymJdUqK-6-15">
          <mxGeometry width="30" height="30" as="geometry" />
        </mxCell>
        <mxCell id="25EGBiNsoIBymJdUqK-6-17" value="username" style="shape=partialRectangle;connectable=0;fillColor=none;top=0;left=0;bottom=0;right=0;align=left;spacingLeft=6;overflow=hidden;" vertex="1" parent="25EGBiNsoIBymJdUqK-6-15">
          <mxGeometry x="30" width="150" height="30" as="geometry" />
        </mxCell>
        <mxCell id="25EGBiNsoIBymJdUqK-6-18" value="" style="shape=partialRectangle;collapsible=0;dropTarget=0;pointerEvents=0;fillColor=none;top=0;left=0;bottom=0;right=0;points=[[0,0.5],[1,0.5]];portConstraint=eastwest;" vertex="1" parent="25EGBiNsoIBymJdUqK-6-11">
          <mxGeometry y="90" width="180" height="30" as="geometry" />
        </mxCell>
        <mxCell id="25EGBiNsoIBymJdUqK-6-19" value="" style="shape=partialRectangle;connectable=0;fillColor=none;top=0;left=0;bottom=0;right=0;editable=1;overflow=hidden;" vertex="1" parent="25EGBiNsoIBymJdUqK-6-18">
          <mxGeometry width="30" height="30" as="geometry" />
        </mxCell>
        <mxCell id="25EGBiNsoIBymJdUqK-6-20" value="first_name" style="shape=partialRectangle;connectable=0;fillColor=none;top=0;left=0;bottom=0;right=0;align=left;spacingLeft=6;overflow=hidden;" vertex="1" parent="25EGBiNsoIBymJdUqK-6-18">
          <mxGeometry x="30" width="150" height="30" as="geometry" />
        </mxCell>
        <mxCell id="25EGBiNsoIBymJdUqK-6-21" value="" style="shape=partialRectangle;collapsible=0;dropTarget=0;pointerEvents=0;fillColor=none;top=0;left=0;bottom=0;right=0;points=[[0,0.5],[1,0.5]];portConstraint=eastwest;" vertex="1" parent="25EGBiNsoIBymJdUqK-6-11">
          <mxGeometry y="120" width="180" height="30" as="geometry" />
        </mxCell>
        <mxCell id="25EGBiNsoIBymJdUqK-6-22" value="" style="shape=partialRectangle;connectable=0;fillColor=none;top=0;left=0;bottom=0;right=0;editable=1;overflow=hidden;" vertex="1" parent="25EGBiNsoIBymJdUqK-6-21">
          <mxGeometry width="30" height="30" as="geometry" />
        </mxCell>
        <mxCell id="25EGBiNsoIBymJdUqK-6-23" value="last_name" style="shape=partialRectangle;connectable=0;fillColor=none;top=0;left=0;bottom=0;right=0;align=left;spacingLeft=6;overflow=hidden;" vertex="1" parent="25EGBiNsoIBymJdUqK-6-21">
          <mxGeometry x="30" width="150" height="30" as="geometry" />
        </mxCell>
        <mxCell id="25EGBiNsoIBymJdUqK-6-24" value="" style="shape=partialRectangle;collapsible=0;dropTarget=0;pointerEvents=0;fillColor=none;top=0;left=0;bottom=0;right=0;points=[[0,0.5],[1,0.5]];portConstraint=eastwest;" vertex="1" parent="25EGBiNsoIBymJdUqK-6-36">
          <mxGeometry x="1" y="153" width="180" height="30" as="geometry" />
        </mxCell>
        <mxCell id="25EGBiNsoIBymJdUqK-6-25" value="" style="shape=partialRectangle;connectable=0;fillColor=none;top=0;left=0;bottom=0;right=0;editable=1;overflow=hidden;" vertex="1" parent="25EGBiNsoIBymJdUqK-6-24">
          <mxGeometry width="30" height="30" as="geometry" />
        </mxCell>
        <mxCell id="25EGBiNsoIBymJdUqK-6-26" value="email" style="shape=partialRectangle;connectable=0;fillColor=none;top=0;left=0;bottom=0;right=0;align=left;spacingLeft=6;overflow=hidden;" vertex="1" parent="25EGBiNsoIBymJdUqK-6-24">
          <mxGeometry x="30" width="150" height="30" as="geometry" />
        </mxCell>
        <mxCell id="25EGBiNsoIBymJdUqK-6-27" value="" style="shape=partialRectangle;collapsible=0;dropTarget=0;pointerEvents=0;fillColor=none;top=0;left=0;bottom=0;right=0;points=[[0,0.5],[1,0.5]];portConstraint=eastwest;" vertex="1" parent="25EGBiNsoIBymJdUqK-6-36">
          <mxGeometry x="2" y="185" width="180" height="30" as="geometry" />
        </mxCell>
        <mxCell id="25EGBiNsoIBymJdUqK-6-28" value="" style="shape=partialRectangle;connectable=0;fillColor=none;top=0;left=0;bottom=0;right=0;editable=1;overflow=hidden;" vertex="1" parent="25EGBiNsoIBymJdUqK-6-27">
          <mxGeometry width="30" height="30" as="geometry" />
        </mxCell>
        <mxCell id="25EGBiNsoIBymJdUqK-6-29" value="is_staff" style="shape=partialRectangle;connectable=0;fillColor=none;top=0;left=0;bottom=0;right=0;align=left;spacingLeft=6;overflow=hidden;" vertex="1" parent="25EGBiNsoIBymJdUqK-6-27">
          <mxGeometry x="30" width="150" height="30" as="geometry" />
        </mxCell>
        <mxCell id="25EGBiNsoIBymJdUqK-6-30" value="" style="shape=partialRectangle;collapsible=0;dropTarget=0;pointerEvents=0;fillColor=none;top=0;left=0;bottom=0;right=0;points=[[0,0.5],[1,0.5]];portConstraint=eastwest;" vertex="1" parent="25EGBiNsoIBymJdUqK-6-36">
          <mxGeometry x="4" y="214" width="180" height="30" as="geometry" />
        </mxCell>
        <mxCell id="25EGBiNsoIBymJdUqK-6-31" value="" style="shape=partialRectangle;connectable=0;fillColor=none;top=0;left=0;bottom=0;right=0;editable=1;overflow=hidden;" vertex="1" parent="25EGBiNsoIBymJdUqK-6-30">
          <mxGeometry width="30" height="30" as="geometry" />
        </mxCell>
        <mxCell id="25EGBiNsoIBymJdUqK-6-32" value="is_active" style="shape=partialRectangle;connectable=0;fillColor=none;top=0;left=0;bottom=0;right=0;align=left;spacingLeft=6;overflow=hidden;" vertex="1" parent="25EGBiNsoIBymJdUqK-6-30">
          <mxGeometry x="30" width="150" height="30" as="geometry" />
        </mxCell>
        <mxCell id="25EGBiNsoIBymJdUqK-6-37" value="userProfile" style="shape=table;startSize=30;container=1;collapsible=1;childLayout=tableLayout;fixedRows=1;rowLines=0;fontStyle=1;align=center;resizeLast=1;" vertex="1" parent="25EGBiNsoIBymJdUqK-6-1">
          <mxGeometry x="300" y="10" width="180" height="90" as="geometry" />
        </mxCell>
        <mxCell id="25EGBiNsoIBymJdUqK-6-38" value="" style="shape=partialRectangle;collapsible=0;dropTarget=0;pointerEvents=0;fillColor=none;top=0;left=0;bottom=1;right=0;points=[[0,0.5],[1,0.5]];portConstraint=eastwest;" vertex="1" parent="25EGBiNsoIBymJdUqK-6-37">
          <mxGeometry y="30" width="180" height="30" as="geometry" />
        </mxCell>
        <mxCell id="25EGBiNsoIBymJdUqK-6-39" value="PK" style="shape=partialRectangle;connectable=0;fillColor=none;top=0;left=0;bottom=0;right=0;fontStyle=1;overflow=hidden;" vertex="1" parent="25EGBiNsoIBymJdUqK-6-38">
          <mxGeometry width="30" height="30" as="geometry" />
        </mxCell>
        <mxCell id="25EGBiNsoIBymJdUqK-6-40" value="UniqueID" style="shape=partialRectangle;connectable=0;fillColor=none;top=0;left=0;bottom=0;right=0;align=left;spacingLeft=6;fontStyle=5;overflow=hidden;" vertex="1" parent="25EGBiNsoIBymJdUqK-6-38">
          <mxGeometry x="30" width="150" height="30" as="geometry" />
        </mxCell>
        <mxCell id="25EGBiNsoIBymJdUqK-6-41" value="" style="shape=partialRectangle;collapsible=0;dropTarget=0;pointerEvents=0;fillColor=none;top=0;left=0;bottom=0;right=0;points=[[0,0.5],[1,0.5]];portConstraint=eastwest;" vertex="1" parent="25EGBiNsoIBymJdUqK-6-37">
          <mxGeometry y="60" width="180" height="30" as="geometry" />
        </mxCell>
        <mxCell id="25EGBiNsoIBymJdUqK-6-42" value="" style="shape=partialRectangle;connectable=0;fillColor=none;top=0;left=0;bottom=0;right=0;editable=1;overflow=hidden;" vertex="1" parent="25EGBiNsoIBymJdUqK-6-41">
          <mxGeometry width="30" height="30" as="geometry" />
        </mxCell>
        <mxCell id="25EGBiNsoIBymJdUqK-6-43" value="user" style="shape=partialRectangle;connectable=0;fillColor=none;top=0;left=0;bottom=0;right=0;align=left;spacingLeft=6;overflow=hidden;" vertex="1" parent="25EGBiNsoIBymJdUqK-6-41">
          <mxGeometry x="30" width="150" height="30" as="geometry" />
        </mxCell>
        <mxCell id="25EGBiNsoIBymJdUqK-6-51" style="edgeStyle=orthogonalEdgeStyle;rounded=0;orthogonalLoop=1;jettySize=auto;html=1;entryX=1;entryY=0.5;entryDx=0;entryDy=0;" edge="1" parent="25EGBiNsoIBymJdUqK-6-1" source="25EGBiNsoIBymJdUqK-6-41" target="25EGBiNsoIBymJdUqK-6-12">
          <mxGeometry relative="1" as="geometry" />
        </mxCell>
        <mxCell id="25EGBiNsoIBymJdUqK-6-53" value="cashDay" style="shape=table;startSize=30;container=1;collapsible=1;childLayout=tableLayout;fixedRows=1;rowLines=0;fontStyle=1;align=center;resizeLast=1;" vertex="1" parent="25EGBiNsoIBymJdUqK-6-1">
          <mxGeometry x="520" y="10" width="180" height="270" as="geometry" />
        </mxCell>
        <mxCell id="25EGBiNsoIBymJdUqK-6-54" value="" style="shape=partialRectangle;collapsible=0;dropTarget=0;pointerEvents=0;fillColor=none;top=0;left=0;bottom=1;right=0;points=[[0,0.5],[1,0.5]];portConstraint=eastwest;" vertex="1" parent="25EGBiNsoIBymJdUqK-6-53">
          <mxGeometry y="30" width="180" height="30" as="geometry" />
        </mxCell>
        <mxCell id="25EGBiNsoIBymJdUqK-6-55" value="PK" style="shape=partialRectangle;connectable=0;fillColor=none;top=0;left=0;bottom=0;right=0;fontStyle=1;overflow=hidden;" vertex="1" parent="25EGBiNsoIBymJdUqK-6-54">
          <mxGeometry width="30" height="30" as="geometry" />
        </mxCell>
        <mxCell id="25EGBiNsoIBymJdUqK-6-56" value="UniqueID" style="shape=partialRectangle;connectable=0;fillColor=none;top=0;left=0;bottom=0;right=0;align=left;spacingLeft=6;fontStyle=5;overflow=hidden;" vertex="1" parent="25EGBiNsoIBymJdUqK-6-54">
          <mxGeometry x="30" width="150" height="30" as="geometry" />
        </mxCell>
        <mxCell id="25EGBiNsoIBymJdUqK-6-57" value="" style="shape=partialRectangle;collapsible=0;dropTarget=0;pointerEvents=0;fillColor=none;top=0;left=0;bottom=0;right=0;points=[[0,0.5],[1,0.5]];portConstraint=eastwest;" vertex="1" parent="25EGBiNsoIBymJdUqK-6-53">
          <mxGeometry y="60" width="180" height="30" as="geometry" />
        </mxCell>
        <mxCell id="25EGBiNsoIBymJdUqK-6-58" value="" style="shape=partialRectangle;connectable=0;fillColor=none;top=0;left=0;bottom=0;right=0;editable=1;overflow=hidden;" vertex="1" parent="25EGBiNsoIBymJdUqK-6-57">
          <mxGeometry width="30" height="30" as="geometry" />
        </mxCell>
        <mxCell id="25EGBiNsoIBymJdUqK-6-59" value="createData" style="shape=partialRectangle;connectable=0;fillColor=none;top=0;left=0;bottom=0;right=0;align=left;spacingLeft=6;overflow=hidden;" vertex="1" parent="25EGBiNsoIBymJdUqK-6-57">
          <mxGeometry x="30" width="150" height="30" as="geometry" />
        </mxCell>
        <mxCell id="25EGBiNsoIBymJdUqK-6-60" value="" style="shape=partialRectangle;collapsible=0;dropTarget=0;pointerEvents=0;fillColor=none;top=0;left=0;bottom=0;right=0;points=[[0,0.5],[1,0.5]];portConstraint=eastwest;" vertex="1" parent="25EGBiNsoIBymJdUqK-6-53">
          <mxGeometry y="90" width="180" height="30" as="geometry" />
        </mxCell>
        <mxCell id="25EGBiNsoIBymJdUqK-6-61" value="" style="shape=partialRectangle;connectable=0;fillColor=none;top=0;left=0;bottom=0;right=0;editable=1;overflow=hidden;" vertex="1" parent="25EGBiNsoIBymJdUqK-6-60">
          <mxGeometry width="30" height="30" as="geometry" />
        </mxCell>
        <mxCell id="25EGBiNsoIBymJdUqK-6-62" value="closeDate" style="shape=partialRectangle;connectable=0;fillColor=none;top=0;left=0;bottom=0;right=0;align=left;spacingLeft=6;overflow=hidden;" vertex="1" parent="25EGBiNsoIBymJdUqK-6-60">
          <mxGeometry x="30" width="150" height="30" as="geometry" />
        </mxCell>
        <mxCell id="25EGBiNsoIBymJdUqK-6-63" value="" style="shape=partialRectangle;collapsible=0;dropTarget=0;pointerEvents=0;fillColor=none;top=0;left=0;bottom=0;right=0;points=[[0,0.5],[1,0.5]];portConstraint=eastwest;" vertex="1" parent="25EGBiNsoIBymJdUqK-6-53">
          <mxGeometry y="120" width="180" height="30" as="geometry" />
        </mxCell>
        <mxCell id="25EGBiNsoIBymJdUqK-6-64" value="" style="shape=partialRectangle;connectable=0;fillColor=none;top=0;left=0;bottom=0;right=0;editable=1;overflow=hidden;" vertex="1" parent="25EGBiNsoIBymJdUqK-6-63">
          <mxGeometry width="30" height="30" as="geometry" />
        </mxCell>
        <mxCell id="25EGBiNsoIBymJdUqK-6-65" value="openUserProfile" style="shape=partialRectangle;connectable=0;fillColor=none;top=0;left=0;bottom=0;right=0;align=left;spacingLeft=6;overflow=hidden;" vertex="1" parent="25EGBiNsoIBymJdUqK-6-63">
          <mxGeometry x="30" width="150" height="30" as="geometry" />
        </mxCell>
        <mxCell id="25EGBiNsoIBymJdUqK-6-67" value="isOpen?" style="shape=partialRectangle;connectable=0;fillColor=none;top=0;left=0;bottom=0;right=0;align=left;spacingLeft=6;overflow=hidden;" vertex="1" parent="25EGBiNsoIBymJdUqK-6-1">
          <mxGeometry x="550" y="191" width="150" height="30" as="geometry" />
        </mxCell>
        <mxCell id="25EGBiNsoIBymJdUqK-6-68" value="closeUserProfile" style="shape=partialRectangle;connectable=0;fillColor=none;top=0;left=0;bottom=0;right=0;align=left;spacingLeft=6;overflow=hidden;" vertex="1" parent="25EGBiNsoIBymJdUqK-6-1">
          <mxGeometry x="550" y="161" width="150" height="30" as="geometry" />
        </mxCell>
      </root>
    </mxGraphModel>
  </diagram>
</mxfile>
